<svg xmlns="http://www.w3.org/2000/svg" viewBox="0 0 1166.175 757.357">
  <defs>
    <style>
      .cls-1, .cls-7 {
        fill: #6c63ff;
      }

      .cls-1 {
        opacity: 0.1;
      }

      .cls-2 {
        fill: #222b46;
      }

      .cls-3 {
        fill: #fff;
      }

      .cls-4 {
        fill: #fa5959;
      }

      .cls-4, .cls-5, .cls-6 {
        opacity: 0.8;
      }

      .cls-5 {
        fill: #fed253;
      }

      .cls-6 {
        fill: #8ccf4d;
      }

      .cls-8 {
        opacity: 0.05;
      }
    </style>
  </defs>
  <g id="Group_205" data-name="Group 205" transform="translate(-10164 -3786)">
    <path id="Path_18" data-name="Path 18" class="cls-1" d="M676.53,157.07c-74.75.1-146.7-21.09-215.52-44.63S323.9,62.54,250.54,51.37c-47.18-7.18-100.83-6.52-137.71,19.55C77.33,96,67.05,137.51,62.09,175.86c-3.73,28.85-5.45,59.13,8.52,85.52,9.7,18.32,26.3,33.42,38,50.88C149.45,373,124.89,450.59,85.2,512.74c-18.61,29.16-40.41,57.11-54.48,87.94s-19.84,65.79-5.49,96.22c14.22,30.16,46.34,52.05,80.81,67,70,30.42,151.5,36.94,230.81,39.45,175.56,5.57,351.46-5.79,526.89-17.15,64.92-4.2,130.13-8.43,193.71-20.6,35.3-6.75,71.65-16.77,96.68-38.73,31.77-27.88,38.27-73.4,15.15-106.12-38.77-54.88-141-65.23-168.8-124.61-15.33-32.69-2.11-70.18,17.36-101.69,41.76-67.61,113.64-128.17,114.85-203.79.83-51.93-36.55-102.59-92.38-125.16C981.79,41.86,902,47.94,861,92,818.84,137.39,742.53,157,676.53,157.07Z" transform="translate(10147.09 3738.546)"/>
    <path id="Path_55" data-name="Path 55" class="cls-2" d="M1056.31,132.69H95.43a8.56,8.56,0,0,0-8.56,8.56v24.94h978V141.25A8.56,8.56,0,0,0,1056.31,132.69Z" transform="translate(10147.09 3738.546)"/>
    <path id="Path_56" data-name="Path 56" class="cls-3" d="M86.87,166.19V727.43a17.26,17.26,0,0,0,17.26,17.26h943.48a17.26,17.26,0,0,0,17.26-17.26V166.19Z" transform="translate(10147.09 3738.546)"/>
    <circle id="Ellipse_10" data-name="Ellipse 10" class="cls-4" cx="4" cy="4" r="4" transform="translate(10245.45 3883.736)"/>
    <circle id="Ellipse_11" data-name="Ellipse 11" class="cls-5" cx="4" cy="4" r="4" transform="translate(10256.45 3883.736)"/>
    <circle id="Ellipse_12" data-name="Ellipse 12" class="cls-6" cx="4" cy="4" r="4" transform="translate(10267.45 3883.736)"/>
    <rect id="Rectangle_126" data-name="Rectangle 126" class="cls-2" width="774" height="338" transform="translate(10330.87 4000.936)"/>
    <g id="Group_204" data-name="Group 204" transform="translate(181)">
      <path id="Path_57" data-name="Path 57" class="cls-7" d="M394.78,349.38a77,77,0,1,0,77,77,77,77,0,0,0-77-77Zm13.81,78.85v36.46H381.37V428.23a22.55,22.55,0,1,1,27.22,0Z" transform="translate(10147.09 3738.546)"/>
      <g id="Group_203" data-name="Group 203">
        <path id="Path_58" data-name="Path 58" class="cls-8" d="M394.78,349.38a77,77,0,1,0,77,77,77,77,0,0,0-77-77Zm13.81,78.85v36.46H381.37V428.23a22.55,22.55,0,1,1,27.22,0Z" transform="translate(10147.09 3738.546)"/>
        <path id="Path_59" data-name="Path 59" class="cls-7" d="M394.78,327.38a99,99,0,1,0,99,99,99,99,0,0,0-99-99Zm17.75,101.38v46.87h-35V428.76a29,29,0,1,1,35,0Z" transform="translate(10147.09 3738.546)"/>
      </g>
    </g>
  </g>
</svg>
